<mxfile host="app.diagrams.net" modified="2021-01-29T19:20:23.664Z" agent="5.0 (Macintosh)" etag="7RGrax92tdZAUFVNICiV" version="14.2.9" type="github">
  <diagram id="7LLEn_i4TJcsrHyCYhmf" name="Page-1">
    <mxGraphModel dx="815" dy="459" grid="1" gridSize="10" guides="1" tooltips="1" connect="1" arrows="1" fold="1" page="1" pageScale="1" pageWidth="827" pageHeight="1169" math="0" shadow="0">
      <root>
        <mxCell id="0" />
        <mxCell id="1" parent="0" />
        <mxCell id="1CcVX0ptcu3xeJ7AK1CL-1" value="&lt;div&gt;Tile&lt;/div&gt;" style="rounded=0;whiteSpace=wrap;html=1;" vertex="1" parent="1">
          <mxGeometry x="280" y="280" width="40" height="40" as="geometry" />
        </mxCell>
        <mxCell id="1CcVX0ptcu3xeJ7AK1CL-2" value="Asteroid" style="rounded=0;whiteSpace=wrap;html=1;fontSize=10;" vertex="1" parent="1">
          <mxGeometry x="280" y="240" width="40" height="40" as="geometry" />
        </mxCell>
      </root>
    </mxGraphModel>
  </diagram>
</mxfile>
